<svg width="128" height="128" viewBox="0 0 128 128" fill="none" xmlns="http://www.w3.org/2000/svg">
<rect x="0.5" y="0.5" width="127" height="127" rx="7.5" fill="#414042" stroke="white"/>
<rect x="17" y="85" width="95" height="25" rx="8" fill="#265B82"/>
<rect x="17" y="52" width="95" height="25" rx="8" fill="#3179AE"/>
<rect x="17" y="19" width="95" height="25" rx="8" fill="#478CBF"/>
<circle cx="33" cy="32" r="9" fill="#3179AE"/>
<circle cx="33" cy="98" r="9" fill="#3179AE"/>
<circle cx="33" cy="64" r="9" fill="#478CBF"/>
<path d="M115.899 96.0056C115.899 96.0056 115.823 95.5369 115.778 95.5412L107.275 96.3616C106.598 96.427 106.073 96.9666 106.025 97.6446L105.792 100.993L99.2133 101.462L98.7658 98.4277C98.6661 97.7527 98.0767 97.2439 97.3945 97.2439H88.4196C87.7376 97.2439 87.1482 97.7527 87.0485 98.4277L86.6008 101.462L80.0222 100.993L79.7886 97.6446C79.7411 96.9663 79.2156 96.4267 78.539 96.3614L70.0314 95.5412C69.9875 95.5369 69.9553 96.006 69.9113 96.006L69.8998 97.8462L77.105 99.0081L77.3409 102.386C77.3886 103.07 77.9404 103.623 78.6248 103.672L87.685 104.319C87.7193 104.321 87.7531 104.322 87.787 104.322C88.4678 104.322 89.0563 103.813 89.1559 103.138L89.6163 100.016H96.198L96.6584 103.138C96.7578 103.813 97.347 104.322 98.0288 104.322C98.0622 104.322 98.0955 104.321 98.1282 104.319L107.19 103.672C107.874 103.623 108.426 103.07 108.473 102.386L108.709 99.0081L115.911 97.841L115.899 96.0056Z" fill="white"/>
<path d="M69.9112 82.1299V93.2965V94.7148V96.0056C69.9366 96.0058 69.962 96.0067 69.9871 96.0091L78.4938 96.8293C78.9394 96.8723 79.2886 97.2309 79.3197 97.6775L79.5819 101.433L87.0024 101.962L87.5135 98.4963C87.5798 98.0469 87.9652 97.7139 88.4198 97.7139H97.3946C97.8489 97.7139 98.2343 98.0469 98.3006 98.4963L98.8118 101.962L106.232 101.433L106.494 97.6775C106.526 97.2309 106.875 96.8725 107.32 96.8293L115.824 96.0091C115.849 96.0067 115.874 96.0058 115.899 96.0056V94.8984L115.903 94.8972V82.1299C117.101 80.6219 118.235 78.9585 119.104 77.559C117.776 75.2982 116.149 73.2777 114.409 71.4058C112.796 72.2178 111.229 73.1377 109.749 74.1165C109.009 73.3804 108.175 72.7783 107.356 72.1489C106.551 71.5024 105.643 71.0284 104.783 70.4761C105.039 68.5685 105.166 66.6904 105.217 64.7304C102.997 63.6131 100.63 62.8723 98.235 62.3403C97.279 63.9471 96.4047 65.6871 95.6433 67.3882C94.7403 67.2373 93.8331 67.1814 92.9248 67.1706V67.1692C92.9185 67.1692 92.9126 67.1706 92.9072 67.1706C92.9015 67.1706 92.8957 67.1692 92.89 67.1692V67.1706C91.98 67.1814 91.0736 67.2373 90.1704 67.3882C89.4094 65.6871 88.5356 63.9471 87.5782 62.3403C85.1847 62.8723 82.8172 63.6131 80.5974 64.7304C80.6482 66.6904 80.7749 68.5685 81.0318 70.4761C80.1697 71.0284 79.2637 71.5024 78.4586 72.1489C77.6405 72.7783 76.805 73.3804 76.0642 74.1165C74.5843 73.1377 73.0179 72.2178 71.4043 71.4058C69.6649 73.2777 68.0386 75.2982 66.71 77.559C67.7541 79.198 68.8741 80.8453 69.9112 82.1299Z" fill="#478CBF"/>
<path d="M108.268 98.5785L108.005 102.354C107.973 102.809 107.611 103.171 107.156 103.203L98.0948 103.85C98.0727 103.852 98.0506 103.852 98.0287 103.852C97.5784 103.852 97.19 103.522 97.1235 103.07L96.6038 99.5458H89.2104L88.6908 103.07C88.621 103.544 88.197 103.885 87.7195 103.85L78.6584 103.203C78.2034 103.171 77.8415 102.809 77.8097 102.354L77.5463 98.5785L69.8972 97.841C69.9007 98.6631 69.9113 99.5637 69.9113 99.743C69.9113 107.821 80.1592 111.704 92.8915 111.749H92.907H92.9228C105.655 111.704 115.899 107.821 115.899 99.743C115.899 99.5604 115.91 98.6635 115.914 97.841L108.268 98.5785Z" fill="#478CBF"/>
<path d="M85.9747 87.7625C85.9747 90.5949 83.6798 92.8894 80.8483 92.8894C78.0182 92.8894 75.7226 90.5949 75.7226 87.7625C75.7226 84.9319 78.0182 82.6386 80.8483 82.6386C83.6798 82.6386 85.9747 84.9319 85.9747 87.7625Z" fill="white"/>
<path d="M84.7412 88.0666C84.7412 89.9453 83.2185 91.468 81.3384 91.468C79.4592 91.468 77.9356 89.9453 77.9356 88.0666C77.9356 86.1878 79.4592 84.6638 81.3384 84.6638C83.2185 84.6638 84.7412 86.1878 84.7412 88.0666Z" fill="#414042"/>
<path d="M92.9067 93.3558C91.9953 93.3558 91.2566 92.6841 91.2566 91.8562V87.1368C91.2566 86.3095 91.9953 85.6371 92.9067 85.6371C93.8181 85.6371 94.5584 86.3095 94.5584 87.1368V91.8562C94.5584 92.6841 93.8181 93.3558 92.9067 93.3558Z" fill="white"/>
<path d="M99.8395 87.7625C99.8395 90.5949 102.134 92.8894 104.966 92.8894C107.796 92.8894 110.092 90.5949 110.092 87.7625C110.092 84.9319 107.796 82.6386 104.966 82.6386C102.134 82.6386 99.8395 84.9319 99.8395 87.7625Z" fill="white"/>
<path d="M101.073 88.0666C101.073 89.9453 102.596 91.468 104.474 91.468C106.355 91.468 107.877 89.9453 107.877 88.0666C107.877 86.1878 106.355 84.6638 104.474 84.6638C102.596 84.6638 101.073 86.1878 101.073 88.0666Z" fill="#414042"/>
</svg>
